<svg xmlns="http://www.w3.org/2000/svg" width="256" height="256"><path fill-opacity=".016" d="M0 128.004v128.004l128.25-.254 128.25-.254.254-127.75L257.008 0H0v128.004m.485.496c0 70.4.119 99.053.265 63.672.146-35.38.146-92.98 0-128C.604 29.153.485 58.1.485 128.5" fill="#1976D2" fill-rule="evenodd"/><path fill-opacity=".179" d="M135 10.639c-1.375.202-5.875.853-10 1.446-11.614 1.671-34.583 7.693-43.474 11.398C42.26 39.846 19.031 64.876 4.944 106c-1.999 5.836-2.22 8.391-2.166 25 .044 13.642.498 20.338 1.73 25.5.918 3.85 1.906 8.243 2.196 9.762.29 1.519.925 3.009 1.411 3.309.487.301.885 1.427.885 2.502 0 1.075.411 2.736.913 3.691.502.955 2.155 4.436 3.673 7.736 11.324 24.615 35.36 48.998 59.154 60.008a990.863 990.863 0 0 1 7.26 3.385c1.403.673 12.745 4.264 23 7.282 6.25 1.84 44.75 1.84 51 0 10.255-3.018 21.597-6.609 23-7.282.825-.396 4.092-1.919 7.26-3.385 23.41-10.832 47.903-35.457 58.692-59.008 1.764-3.85 3.543-7.675 3.952-8.5 1.049-2.111 5.597-17.424 7.129-24 1.6-6.866 1.761-37.901.23-44.056-.609-2.444-1.877-7.594-2.818-11.444-.942-3.85-2.102-7.427-2.579-7.95-.476-.522-.866-1.766-.866-2.764 0-.997-.398-2.595-.885-3.55-.487-.955-2.206-4.453-3.819-7.774-3.81-7.845-6.492-12.599-8.046-14.265-.687-.737-1.25-1.726-1.25-2.197 0-.471-.562-1.452-1.25-2.18-.687-.727-3.014-3.572-5.17-6.321-7.435-9.483-18.358-19.038-27.865-24.378-3.724-2.092-7.827-2.832-7.597-1.371.303 1.918-.672 1.928-8.868.09-10.037-2.251-15.161-1.974-23.628 1.278-8.402 3.227-12.104 7.069-13.558 14.072-1.376 6.632-.47 9.162 5.253 14.661 2.923 2.809 3.972 3.244 6.49 2.691 1.754-.385 3.275-.219 3.657.399.36.583 1.527 1.059 2.595 1.059 1.068 0 1.941.45 1.941 1s.9 1 2 1 2 .45 2 1 .567 1 1.26 1c.693 0 2.474 1.125 3.957 2.5 1.482 1.375 3.165 2.5 3.739 2.5.574 0 1.044.45 1.044 1s1.012 1.007 2.25 1.015c1.648.012 1.886.246.89.878-.961.608-1.199 2.147-.81 5.234 1.304 10.359 1.654 9.349-3.33 9.595-11.582.571-19.658 5.847-24.487 15.997-2.093 4.401-2.926 8.049-3.486 15.281-.405 5.225-.802 8.938-.882 8.25-.087-.755-1.827-1.306-4.395-1.392l-4.25-.142 4-.716 4-.716-5.321-.142c-5.153-.137-8.179-1.665-8.179-4.13 0-.621-.45-.852-1-.512-.55.34-1-.11-1-1s-.45-1.34-1-1c-.55.34-1-.084-1-.941s-.702-1.559-1.559-1.559-1.3-.419-.984-.931c.317-.512.147-1.196-.377-1.52-1.156-.714-4.08-6.421-4.08-7.962 0-.608-.9-1.668-2-2.355s-2-2.099-2-3.137c0-1.038-1.575-3.271-3.5-4.961-1.925-1.69-3.5-3.707-3.5-4.481s-.701-1.99-1.558-2.701C110.475 82.32 108 76.473 108 73.46c0-6.622-2.783-7.089-6.868-1.152-1.63 2.369-3.658 4.883-4.506 5.588-2.818 2.338-3.201-3.329-.714-10.574 7.489-21.822 25.714-38.018 52.693-46.825 4.207-1.373 9.168-2.497 11.023-2.497 2.331 0 3.372-.463 3.372-1.5 0-1.079-1.103-1.5-3.929-1.5-2.16 0-4.601-.673-5.424-1.496-3.128-3.128-9.836-4.158-18.647-2.865M199.272 126.5c.019 8.55.114 9.13.658 4 .35-3.3.34-7.8-.022-10-.429-2.607-.65-.519-.636 6m-2.04 17.5c0 1.925.206 2.713.457 1.75.252-.963.252-2.537 0-3.5-.251-.963-.457-.175-.457 1.75" fill="#1976D2" fill-rule="evenodd"/><path fill-opacity=".32" d="M111.5 18.613c-37.616 7.782-67.492 25.122-84.841 49.244-7.517 10.449-11.794 18.98-16.368 32.643-3.584 10.707-3.677 11.36-3.489 24.5.272 19.039.267 23.163-.035 30.25-.249 5.836 1.245 12.536 4.405 19.75a179.65 179.65 0 0 1 2.085 5c4.607 11.644 14.196 26.017 24.403 36.577C43.987 223.123 58.078 235 59.516 235c.343 0 2.505 1.268 4.804 2.817 2.299 1.549 5.98 3.633 8.18 4.631 2.2.999 5.772 2.656 7.938 3.684 2.166 1.027 4.727 1.868 5.691 1.868.964 0 1.999.398 2.3.885.3.486 1.79 1.141 3.309 1.455 1.519.314 5.012 1.067 7.762 1.673 4.841 1.068 11.694 2.095 23.843 3.575 9.676 1.178 37.831-3.015 44.893-6.685.955-.497 2.333-.903 3.063-.903.729 0 3.097-.841 5.263-1.868a628.491 628.491 0 0 1 7.938-3.684c2.2-.998 5.881-3.082 8.18-4.631 2.299-1.549 4.456-2.817 4.793-2.817 1.715 0 13.071-9.42 21.027-17.443 9.764-9.845 17.919-21.476 23.879-34.057 2.085-4.4 4.202-8.781 4.706-9.736.503-.955.915-2.616.915-3.691 0-1.075.4-2.202.89-2.505.489-.302 1.136-2.016 1.438-3.809.303-1.792 1.126-5.734 1.831-8.759.838-3.597 1.245-12.418 1.178-25.5-.105-20.316-.806-29.238-2.434-30.95-.497-.523-.903-1.97-.903-3.216 0-1.246-.737-3.969-1.639-6.05A240.284 240.284 0 0 1 245.745 83c-.538-1.375-1.376-3.281-1.862-4.236-.486-.955-.883-2.418-.883-3.25 0-.833-.45-1.514-1-1.514s-1-.9-1-2-.338-2.005-.75-2.011c-.412-.007-1.603-1.792-2.645-3.967-1.042-2.176-2.617-4.758-3.5-5.74-.883-.981-2.888-3.5-4.456-5.598-1.568-2.099-3.035-3.631-3.261-3.406-.225.226.27 2.337 1.101 4.692 1.894 5.366 1.887 6.03-.06 6.03-1.571 0-13.6-8.047-16.429-10.99-.825-.859-4.196-3.799-7.49-6.535-3.295-2.736-7.345-6.211-9-7.722-1.656-1.511-6.382-4.417-10.504-6.457-6.588-3.262-8.401-3.715-15-3.753-8.894-.051-13.949 2.011-16.99 6.931-3.174 5.136-2.628 8.706 2.234 14.621 2.939 3.576 6.5 6.357 11.543 9.017 22.791 12.021 45.042 30.863 46.665 39.515.367 1.959 1.979 6.141 3.581 9.294 4.582 9.017 6.316 17.255 5.555 26.392-.865 10.381-3.377 17.807-6.594 19.493-12.766 6.689-12.123 6.076-19.094 18.194-6.231 10.833-19.327 26.912-20.755 25.484-.326-.326-.156-.906.378-1.288.534-.383 1.576-1.77 2.315-3.083a1115.72 1115.72 0 0 1 3.416-6c8.933-15.572 13.431-30.131 15.883-51.408 3.051-26.467-4.756-42.936-20.355-42.936-6.183 0-13.47 3.636-16.603 8.284-2.122 3.15-2.269 4.182-1.761 12.441 1.936 31.539 1.95 30.964-.909 38.759-5.282 14.404-7.929 20.123-12.553 27.123-10.83 16.395-22.241 22.227-37.462 19.15-3.798-.767-14.35-7.999-14.453-9.905-.026-.483-1.611-2.609-3.522-4.725-1.911-2.115-3.746-5.094-4.077-6.621-.917-4.217-2.559-7.12-6.673-11.794-4.672-5.307-7.315-5.994-14.882-3.871-4.619 1.296-6.487 1.424-8.189.561-1.212-.614-4.004-1.242-6.204-1.394l-4-.277 4-1.828c2.2-1.006 5.863-2.663 8.139-3.683 7.451-3.34 13.184-9.678 20.343-22.489 2.909-5.207 6.882-16.807 7.534-22l.628-5-2.425 5.031c-1.333 2.767-3.053 5.692-3.822 6.5-.768.808-2.958 4.619-4.865 8.469-5.192 10.48-13.116 17.08-22.836 19.021-11.683 2.333-21.374-1.745-26.141-10.999-2.068-4.014-2.62-6.696-2.896-14.072-.302-8.078.014-10.173 2.785-18.443 4.113-12.276 10.925-26.149 16.26-33.116 7.672-10.019 16.029-16.033 37.481-26.976 5.052-2.577 11.262-6.087 13.8-7.8C96.023 29.402 98.663 28 99.35 28c.688 0 1.677-.422 2.2-.938.522-.516 3.279-1.245 6.126-1.619 4.719-.621 5.41-.448 7.812 1.955 1.824 1.823 2.442 3.246 2.007 4.619-.36 1.132-.172 1.983.438 1.983.587 0 1.067-.45 1.067-1s.638-1 1.417-1 1.566-.359 1.75-.798c.575-1.378 17.017-8.935 24.333-11.185 12.094-3.718 11.841-3.882-6-3.884-14.218-.002-18.964.404-29 2.48M95.651 58.468c-.31.807-.133 1.734.393 2.059.526.325.956-.336.956-1.468 0-2.415-.556-2.658-1.349-.591M93.638 63.5c-.316.825-.139 1.5.393 1.5.533 0 .969-.675.969-1.5s-.177-1.5-.393-1.5c-.216 0-.652.675-.969 1.5m146.771 36.006c-.365 1.456-.179 3.626.415 4.821 1.078 2.171 1.548 5.802 2.782 21.523.916 11.668-1.595 29.061-5.58 38.65-.457 1.1-1.819 4.7-3.027 8-3.049 8.333-12.694 28.116-16.244 33.32-3.67 5.379-2.807 6.693 1.381 2.103 7.991-8.76 18.882-28.805 23.319-42.923 6.19-19.696 7.221-45.971 2.369-60.425-2.52-7.508-4.368-9.239-5.415-5.069M133 226c0 .55.648 1 1.441 1s1.719-.45 2.059-1c.34-.55-.309-1-1.441-1-1.132 0-2.059.45-2.059 1m-52.5 2c.34.55 1.266 1 2.059 1 .793 0 1.441-.45 1.441-1s-.927-1-2.059-1c-1.132 0-1.781.45-1.441 1m44.95-.105c-2.042 1.924-19.524 2.776-32.2 1.57-4.697-.448-7.25-.333-7.25.326 0 .559 2.138 1.255 4.75 1.548 2.612.292 7.9 1.018 11.75 1.614 5.738.887 8.342.789 14.441-.546 4.092-.896 8.142-1.982 9-2.415.857-.432 2.684-1.252 4.059-1.821l2.5-1.036-3.05-.067c-1.677-.038-3.477.335-4 .827" fill="#1976D2" fill-rule="evenodd"/><path fill-opacity=".75" d="M157.775 31.497c-3.356 1.898-4.775 4.419-4.775 8.487 0 6.732 5.36 12.568 17.31 18.847 22.718 11.937 45.805 33.187 52.333 48.169 6.138 14.086 6.39 18.654 2.207 40-4.098 20.917-11.872 43.06-20.385 58.062-4.3 7.579-5.566 11.938-3.465 11.938.55 0 1-.525 1-1.167 0-.641.276-.89.614-.552.338.337-.352 2.177-1.533 4.087-3.713 6.009-.426 5.442 5.785-.996 9.201-9.539 20.09-27.813 26.141-43.872 1.171-3.108 4.145-10.782 5.037-13 2.834-7.041 4.368-27.11 3.125-40.893-1.272-14.117-2.713-21.081-5.919-28.607-3.758-8.824-9.544-20-10.355-20-.492 0-.895-.524-.895-1.164 0-1.135-10.448-13.523-14.477-17.164a2477.541 2477.541 0 0 1-6.049-5.5c-6.732-6.14-11.927-9.909-19.063-13.831-6.124-3.367-7.672-3.776-15.361-4.064-6.328-.237-9.258.08-11.275 1.22m10.196 64.127c-5.939 3.689-9.603 14.017-7.685 21.66 1.662 6.621 1.299 34.181-.536 40.716-4.212 14.998-11.004 27.153-19.91 35.631-11.83 11.262-20.862 16.106-38.128 20.446-4.842 1.218-20.583.587-21.679-.868-1.455-1.934-26.534-12.202-29.888-12.237-1.455-.015-4.413-1.365-6.573-3-3.897-2.948-6.572-3.795-6.572-2.08 0 1.649 9.05 10.976 14.966 15.423 4.962 3.73 12.824 8.044 21.534 11.817 1.1.476 5.6 1.76 10 2.852 12.978 3.221 38.431 2.608 45.736-1.102.955-.485 2.366-.882 3.135-.882 2.247 0 17.233-7.821 22.393-11.686 7.228-5.415 13.87-12.09 19.717-19.814C180.3 184.814 189 168.923 189 165.981c0-1.025.398-2.109.885-2.41.486-.3 1.134-1.79 1.438-3.309.305-1.519 1.037-4.787 1.627-7.262 2.295-9.619 3.067-16.999 3.103-29.675.039-14.06-.968-18.426-5.351-23.193-5.11-5.559-17.184-7.953-22.731-4.508m84.108 49.959c.048 1.165.285 1.402.604.605.289-.722.253-1.585-.079-1.917-.332-.332-.568.258-.525 1.312M249.855 155c-.617 3.496-.361 4.84.716 3.763.313-.314.42-2.076.236-3.917l-.334-3.346-.618 3.5m-3.272 11c-1.055 3.575-2.239 7.175-2.631 8-6.701 14.092-9.069 18.483-14.102 26.147-8.74 13.31-17.973 21.873-33.415 30.989-15.635 9.23-27.715 14.155-43.254 17.638-10.12 2.268-14.052 2.625-29.431 2.672-9.762.03-17.749.323-17.75.651 0 .749 19.348 1.892 32.128 1.898 6.305.003 10.867-.513 13.218-1.495 1.974-.825 4.928-1.5 6.563-1.5 1.635 0 3.251-.45 3.591-1 .34-.55 1.941-1 3.559-1s2.941-.45 2.941-1 1.35-1 3-1 3-.45 3-1 .859-1 1.908-1c1.796 0 15.01-6.569 16.092-7.999.275-.364 1.963-1.298 3.75-2.075 1.787-.778 3.25-1.754 3.25-2.17 0-.416.637-.756 1.417-.756.779 0 1.566-.338 1.75-.75.183-.412 2.499-2.491 5.146-4.619 10.935-8.789 21.63-21.008 28.563-32.631 3.568-5.982 7.124-13.314 7.124-14.687 0-.722.45-1.313 1-1.313s1-1.125 1-2.5.45-2.5 1-2.5 1-1.312 1-2.917c0-1.604.486-3.078 1.08-3.276.594-.198.932-1.923.75-3.834-.308-3.244-.457-3.044-2.247 3.027M74.5 242c.34.55 1.068 1 1.618 1s.722-.45.382-1c-.34-.55-1.068-1-1.618-1s-.722.45-.382 1m4 2c.34.55 1.293 1 2.118 1s1.222-.45.882-1c-.34-.55-1.293-1-2.118-1s-1.222.45-.882 1m5 2c.34.55 1.604.993 2.809.985 1.781-.013 1.91-.197.691-.985-1.97-1.273-4.287-1.273-3.5 0m6.5 2c0 .55 1.237.968 2.75.93 2.437-.063 2.522-.168.75-.93-2.731-1.174-3.5-1.174-3.5 0m6.485 1.976c.348.563 2.481 1.024 4.741 1.024 5.05 0 4.665-.509-1.05-1.384-2.849-.437-4.108-.314-3.691.36" fill="#1976D2" fill-rule="evenodd"/></svg>